<svg xmlns="http://www.w3.org/2000/svg" xmlns:xlink="http://www.w3.org/1999/xlink" width="100%" height="100%" version="1.1" viewBox="0 0 1024 1024" xml:space="preserve" style="fill-rule:evenodd;clip-rule:evenodd;stroke-linejoin:round;stroke-miterlimit:2"><g><path d="M136,910L931,910L1016,765L619,77L573,77L560,54L401,54L327,183L327,184L358,237L358,238L202,505L109,559L8,735L8,736L87,872L114,872L136,910Z" transform="matrix(0.930556,0,0,0.930556,31.5556,33.4722)" style="fill:#2c2c2c"/></g><g><path d="M318.969,237.509L293.052,193.199L293.052,173.954L381.337,20.052L579.807,20.052L592.807,43.052L638.605,43.052L1055.27,765.135L950.45,943.948L116.427,943.948L94.427,905.948L67.46,905.948L-25.948,745.144L-25.948,725.951L84.085,534.211L177.207,480.14L318.969,237.509ZM136,910L931,910L1016,765L619,77L573,77L560,54L401,54L327,183L327,184L358,237L358,238L202,505L109,559L8,735L8,736L87,872L114,872L136,910Z" transform="matrix(0.930556,0,0,0.930556,31.5556,33.4722)" style="fill:#e96aff"/></g><g><path d="M77.737,243.748L116.294,176.854L154.86,243.748L77.737,243.748Z" transform="matrix(3.18568,0,0,3.18568,29.5781,43.2892)" style="fill:#e96aff"/></g><g><path d="M456,682L504,765L952,765L904,682L456,682Z" transform="matrix(0.930556,0,0,0.930556,31.5556,33.4722)" style="fill:#e96aff"/></g><g><path d="M568,578L435,347L435,346L572,108L573,108L706,339L706,340L569,578L568,578" transform="matrix(0.930556,0,0,0.930556,31.5556,33.4722)" style="fill:#e96aff"/></g><g><path d="M77.544,243.581L116.266,176.451L154.879,243.584L77.544,243.581Z" transform="matrix(4.24758,0,0,4.22781,205.613,-379.389)" style="fill:#e96aff"/></g><g><path d="M43.269,243.748L71.599,243.748L124.181,152.319L96.141,152.32L43.269,243.748Z" transform="matrix(3.18568,0,0,3.18568,29.5781,43.2892)" style="fill:#e96aff"/></g><g><path d="M510,513L424,365L338,513L510,513Z" transform="matrix(0.930556,0,0,0.930556,31.5556,33.4722)" style="fill:#e96aff"/></g></svg>